/* XPM */
static char *_8889e8a8696417aa0ec2bc5dbab7a81N9PDMBghYTvkVtGR[] = {
/* columns rows colors chars-per-pixel */
"50 50 238 2 ",
"   c #010101",
".  c #090401",
"X  c #090605",
"o  c #020903",
"O  c #0C000B",
"+  c #0B0C0B",
"@  c #130B02",
"#  c #0B1208",
"$  c #1B1403",
"%  c #13110D",
"&  c #1A0015",
"*  c #0E1114",
"=  c #06111C",
"-  c #121513",
";  c #161A1B",
":  c #181818",
">  c #2A1605",
",  c #24011E",
"<  c #230F1A",
"1  c #2E1D11",
"2  c #17261C",
"3  c #392105",
"4  c #3C230A",
"5  c #39320F",
"6  c #28251E",
"7  c #171C21",
"8  c #250023",
"9  c #2C0024",
"0  c #2D062A",
"q  c #33012C",
"w  c #3A012D",
"e  c #2E152B",
"r  c #3C0131",
"t  c #390035",
"y  c #1E2525",
"u  c #1A2C29",
"i  c #232424",
"p  c #282A25",
"a  c #232629",
"s  c #25292C",
"d  c #2A2C2D",
"f  c #332B2E",
"g  c #38332C",
"h  c #2C2E31",
"j  c #2B3639",
"k  c #323335",
"l  c #343639",
"z  c #393939",
"x  c #47280B",
"c  c #59310C",
"v  c #5A320D",
"b  c #673918",
"n  c #703F16",
"m  c #44003B",
"M  c #48003C",
"N  c #49173E",
"B  c #422F36",
"V  c #453D35",
"C  c #762A36",
"Z  c #734314",
"A  c #7B471A",
"S  c #62610E",
"D  c #554939",
"F  c #684729",
"G  c #6E4A2B",
"H  c #2C3845",
"J  c #3B3E41",
"K  c #4C0246",
"L  c #530247",
"P  c #481842",
"I  c #541645",
"U  c #5A0153",
"Y  c #5A0356",
"T  c #63004F",
"R  c #660059",
"E  c #73025C",
"W  c #67125A",
"Q  c #5A324C",
"!  c #63314F",
"~  c #6B0163",
"^  c #770368",
"/  c #780C6A",
"(  c #6B3D67",
")  c #3F4145",
"_  c #464947",
"`  c #535553",
"'  c #5D5F5F",
"]  c #675845",
"[  c #68584D",
"{  c #6E6459",
"}  c #6C6A6A",
"|  c #6F706C",
" . c #7A7572",
".. c #9D3E31",
"X. c #8C4811",
"o. c #9A5B19",
"O. c #A45111",
"+. c #AE6F17",
"@. c #AA601A",
"#. c #B77518",
"$. c #8C5623",
"%. c #955B27",
"&. c #974432",
"*. c #A84D2D",
"=. c #976330",
"-. c #A96728",
";. c #B86A26",
":. c #AB6E33",
">. c #AE7237",
",. c #BB7733",
"<. c #CD6B17",
"1. c #F17815",
"2. c #C67328",
"3. c #D77622",
"4. c #CF7E33",
"5. c #E47A21",
"6. c #9F3051",
"7. c #A42D4F",
"8. c #86036C",
"9. c #8A0874",
"0. c #920675",
"q. c #910D76",
"w. c #95047B",
"e. c #9A027C",
"r. c #821677",
"t. c #9A226E",
"y. c #AB4244",
"u. c #8F745A",
"i. c #A47141",
"p. c #8A7468",
"a. c #807C76",
"s. c #AD7E64",
"d. c #A89223",
"f. c #CF9D08",
"g. c #D9AE07",
"h. c #F08B2E",
"j. c #FA8929",
"k. c #CBC600",
"l. c #E5C807",
"z. c #E9D107",
"x. c #F8EE03",
"c. c #FCF802",
"v. c #BC8353",
"b. c #97846C",
"n. c #868379",
"m. c #A99377",
"M. c #A99478",
"N. c #FCA953",
"B. c #CA9262",
"V. c #6E7683",
"C. c #940285",
"Z. c #9D0282",
"A. c #921B82",
"S. c #A20084",
"D. c #A4018A",
"F. c #AB008D",
"G. c #A8178A",
"H. c #A40092",
"J. c #AC0194",
"K. c #A7009A",
"L. c #AD019B",
"P. c #B40095",
"I. c #B2009D",
"U. c #902584",
"Y. c #B12996",
"T. c #B500A3",
"R. c #B902A4",
"E. c #BD01AC",
"W. c #BC08A8",
"Q. c #C00FAE",
"!. c #C401B4",
"~. c #C804B7",
"^. c #CC01BC",
"/. c #C074AF",
"(. c #CE0EC7",
"). c #D401C3",
"_. c #D902C8",
"`. c #DC11D1",
"'. c #E40ED3",
"]. c #EA10D9",
"[. c #F50DE5",
"{. c #F712E9",
"}. c #FE13FA",
"|. c #F857EB",
" X c #6E8080",
".X c #7C898B",
"XX c #919087",
"oX c #A0938A",
"OX c #B49F82",
"+X c #B8A585",
"@X c #ACA390",
"#X c #B9B49C",
"$X c #9BA1A1",
"%X c #A9B5B3",
"&X c #C7AA88",
"*X c #C7B898",
"=X c #D3BD94",
"-X c #D5BC9B",
";X c #D4A0B9",
":X c #B8C3B8",
">X c #CEC29F",
",X c #D5C496",
"<X c #D9C297",
"1X c #D6C69A",
"2X c #D9C69C",
"3X c #D7C99C",
"4X c #D9CA9E",
"5X c #CAC2A4",
"6X c #CBC3A8",
"7X c #DAC5A2",
"8X c #D7CCA7",
"9X c #DBCDA2",
"0X c #DCD1A5",
"qX c #DED4AA",
"wX c #DED5B2",
"eX c #E1CDA4",
"rX c #E2CFA9",
"tX c #E1D0A7",
"yX c #E1D4AB",
"uX c #E1D9AE",
"iX c #E2D7B3",
"pX c #E3DBB4",
"aX c #E5DDBA",
"sX c #B9BAC9",
"dX c #F582DF",
"fX c #B1D3D7",
"gX c #CCCFD1",
"hX c #E8DEC4",
"jX c #C1E4DB",
"kX c #DCE4DD",
"lX c #E8E3C2",
"zX c #D6DCE3",
"xX c #F3D2F2",
"cX c #C9E4E9",
"vX c #D6E5E6",
"bX c #ECF4F2",
"nX c #F7F9F9",
"mX c #FFFFFF",
/* pixels */
"pX0X0XqX9XqXqX0XqX9X4XyXqXqX7XuXpX0X9XyX9X4X0X  d.S   6XqXqX3XuXpX0X0XqX9X2XqX0XqX9X7XqXaXqX1X3XuX0X",
"4X9X9X3X9XqX4X0X1X4XyX0XaX,X9XiX7X9X9X2X9X4X    k.c.$   aX,X0XpX9X0X9X1X9X4X4XqX2X4XqXqXlX2X4X9X4X0X",
"qX9X,X1X3XpX0X9X9X9X0X9X9X3X4X0XuXa.     .qX    5 5 .   0X .    | 0X,X1X4XqX9X9X9X9X0X9XpX3X3X4X9XqX",
"9XqXyX4X9XqXqX9XyXyX9X0X9X4X9X0X0X        9X    . .     9X        qXyX3X9X9XqX9XqXqX4X0XiX4X9X0X9X4X",
"3X0XpX0X4XpX0XqX0XqX9X9X4X9X9X#Xp +     + d :   b X.@ + f :       i ` 0X4XqX0XqX0XqX0X9XiX9X9X9X2X4X",
"4X4X0X9XqXpXyX0X7X9X0X4X9X9X1Xp.O 8 9 9 &   . 4 o.#.4 @   O 9 9 8 & e 8XqXuXyX9X4X9X0X4XiX9X3X4X3X4X",
"3XqX9X4X9XiX9X9X3X3X,X9X0X*Xo w S.T.~.).C.  A ;.f.g.#.A   K ).~.!.S.E   | pX9X9X3X1X,X4XpX7X9X4X9X4X",
"9X4X0X9X4XqX9X4X4X3X1X4X@Xp.L ^ J.J.L.I.C.U C @.g.z.#.&.L ^ I.L.L.J.C.L ( #X9X1X4X1X1X2XpXqX0XqX0XqX",
"4X9X0X9X9XyX4X,X3X0X4X9Xo q ^.^.!.F.e.e.F.).y.o.z.c.#.y.).R.e.e.Z.E.^._.~   *X,X3X9X3X4XaX0X9X0XqXqX",
"qX9X4X0X0X9X4X2X7X2X9X1X# t !.E.J.L 9 9 L H.7.@.z.c.#.*.J.~ 9 9 w e.I.^.~   *X1X4X1X9X4XiX9XqXqX0XqX",
"9X,X9XqX0X7X9XqX9X9X0X1X# t !.L.8.e -   , A.6.o.l.x.+.&.G.I   # : E S.^.~   5XqX0X0X0X4XqX3X9X9X4X0X",
",X1X9X0XyX9X4X9XyXyX9X2X# q ^.^ & kXkXs l kX$X4 f.l.4 ' kXl + kXkXB q ^.~   5X0XuXuX9X2XqX3X3X4XqX9X",
"4X9X4XqX9X9X9X9XiXpX9X*X< K ^.~   kXkXl l kX%X` d.f.[ V.kXl ; kXkXp & ^.^ & @X0XpXaXyX9XwX3X4X9X4X0X",
"0X0XqXqXyX2X9XqX0XyXg   8.D.^.~   X.;._ j = .XmXv.O.nXzX7 s H %.@.$ 8 ^.I.e.9 - qXiXqX0XiX9X4X4X9XqX",
"0XyXqXiXaX9XqX9XtX9Xg   Z.J.R.T   x b F G Z u.-X&XB.-X&XG G F b c @ 8 I.J.I.q - qX0XqX0XiX0X0XqX9X3X",
"uX0XqXqXuX9X9XtX9X9XV   T.E.S.L     . o.<.1.<.X.hXnX-.O.1.<.;.>     & e.J.^.t : 0X9X9X0XaX0XqX9X,X4X",
"iX0X0XqX0X2X9X9X+XD % X E.H.r Q m.b.u.4 F *X7X7XdX|.7X7X2Xu.3 p.#X*XoXq ~ ).m o ` oX9XyXaXqX4X3X1X4X",
"9X9X9X3X7X2X2X9X{     O E.C.  ] eX4X2X% j fXvXmX|.[.xXbXfX| X 8X9X9X9X  K ).m     i qXqXlX2X4X4X4X4X",
"qX9X2X1X4XeX+X6 I 9.&   E.C.  ] eX2X=X=Xm.p Q Y.Q.~.Y.r.s ' 7X0XqX0X1X  L _.t   E / h @XpX2X3X0X0XqX",
"0XqXyX4X9XeXM.  M F.m , R.w.  ] 4X7X7X4X+X  r G.L.T.G./   ' 9X0X0XyX0X  K ^.L 8 0.8.   .iX3X9X0XqX0X",
"4X0XiX0X9XeXOX  m S.T.!.P.E   D 4X2XtXeX&X  ` jXU.8.sX$X  { 0XqX4X0XwX  w F.E.!.D.^   a.iX9X0XqX0XqX",
"9X9X0X9XqXtX+X  m S.J.L.T I ] m.2X2X2Xm.]   ' bX;X/.zX%X  k @X7X9X4X0X| ! L C.T.S.^   a.pX0X9X4XqX0X",
"3XqX9X4X9XyXM.  m F.Z.0.  g 2X<X<XeX1X%     } mXmXmXmXgX+     *X4XuX9X3XXX  T S.S.8.  a.iX3X9X4X4XqX",
"4X4X0X9X4X9X-Xm.! r w r u.+X2X<X2Xu.D + a  X%XmXmXmXmXvX.X_   V } 9X9X9X9XXXQ r r N #X9XqX1X3XqX0X9X",
"4X9X0X9X9X7X2X2Xp.    % 9X9X1X2X2Xp   X _ jXbXmXmXmXmXbXvX.X+   + 8XqX9X9X0X'     k 9XqXaX4X9X9XqX4X",
"uX9X4X0X0X2X2X2X<X&X*X*X1X2XeXb.1 ; y * g :.+XcXnXmXcX:X,.F * ; i i ` 9X9X9X3X4X9X3X4X0XlX9X9XqX0XqX",
"9X1X9X0X0X2X7X9X9X9X9X2X=X=X=X]   y h * 1 *.s.:XzXxX:X@X*.b * s s   p qX0X4X9X0X0X9X9X9XpX0XyXuXyX0X",
"1X1X9X0XqX7X4X9XqXtX7X2X2X+X+ * s l z o , 0.6.+.t.q.-.*.e.L   d J d 7   | 9X4X0XyXyX9XqXpX4X9XiX9X9X",
"4X9X9XqX9X9X7X7XyXiXqX7X2XOX  * l l k   q W.t...G.R.7.7.I.U   i l k a   } 0X9X9XpXaX0X9XpX9X4X0X9X,X",
"qX0XqXqXqX7X9XqXqXtX0X0X9X+XX ; _ h a   m }.(.9.'.{.D.Z.).~   ; d J k   | 4X0XqXqXuX9X0XaX9X9X0X3X=X",
"qXqXqXuXpX0XqX0XtX9XtX7X{ V ; s ) ; - R w.W.J.0.!._.Z.e.J.w.^ 0 - l l - z | qXqXqX0XqX9XiX0X0X9X3X2X",
"uX0X0XqX0X7X0X9X0X7X9X7X    s l ) + O E.!.0.0.w.I.E.Z.w.0.J._.t   k J h *   5XyX0X4X9X3XiXqX0X4X9X0X",
"9X9X9X4X9X7X7X9X2X2XqX7X% + s k _ * O 9.J.T.^.].I.Z.T.!.].~.S.q   l J d :   5X0X9X4X1X1XiX0XqX9X3X9X",
"qX9X1X1X4X9X9X7X7X7X9X1X% + a h l + O 8.D.E._.{.J.0.R.^.{.~.w.9   d k d :   5X2X4XqX4X9XiXqX9X0X9X4X",
"0XyXqX4X9X9XqX9XqXqX7X9X% + h ;       ^ D.!.!.!.F.Z.E.!.~.L.e.,     o h ;   5X9X9X0XqX0XaXqXyX4X0XyX",
"3X0XpX0X9X9X0XqX9XqX9X4X% X ; e K Y ~ L.R.I.I.I.r.W J.I.L.J.J.^ Y Y K ; +   5XqXtX9X0XqXaXuXaXuXqX0X",
"9X9X0X0XqXrXqX9X4X7X9X<X+     U ).[.}.}.'.0.w.S.N u q.S.0.J.E.[.}.}.(.X     5X0XqX0XqX0XaXqXuXyX9XqX",
"4XqX9X4X9XyX9X7X2X2X2X4XOX]   U )./ / ].'.e./ I < - P W w.J.!.9./ ].(.  z #X0X4X9X0X4X9XpXqX0X2X3X3X",
"9X9X9X9X4X9X7X2X4X2X2X2XtX-X  U ).,   `.'.e.W u o   2 f w.J.^.8   (.(.  XX9X9X1X1X,X4X9XiX0XyXqX4X4X",
"4X9X0X9X9X9X2X,X2X9X2X4X6 N L.H.e.H.L._.K., O   $.;.$ O & R _.T.K.D.P.'.U.2 >X3X1X,X3X0XaX4X0XpX0X4X",
"yX9X4X9X9X9X2X2X7X2X9X2Xp N L.J.e.H.K.L.^   @ > ;.5.4 @   m L.K.K.e.D.(.U.h -X1X9X3X9XqXpX9X9X0X9X0X",
"9X1X9XqX0X4X9X0X9X9XtX7X2XOXO U _.m O O O   x >.2.3.,.A   X O O , T.L.O  .3X1X4X3X9X4X4XiX3XqX9X4X3X",
"1X3X9X0XqX9X4X9XyXyX9X2X4X,XD ! C.&   x 3   x ,.3.3.2.$.  $ c @ X ^ r._ *X9X0X0X0X0X4X,XqX9X4X0X9X3X",
"4X9X9XqX9X9X9X9XiXpXtX9X2X4XtXb.    . 5.;.  x ,.3.5.2.$.  c j.x     g qX9X4X0XuXyX9X2X1XiX3X9X0X0X9X",
"qX0XqXqXyX9X9XtXtXuXtXtX9X9X9Xb.  F i.-.-.i.A x >.2.c c =.:.@.:.=.@ h 9X0X9X9XiXaXyX9X3XiXqX9X4X0X0X",
"0XyX0XuXaXrXtXqXtXrXyXeX2XtXtXb.  v.N.Z %.N.i.  A >.. 1 N.4.c h.N.> d 9X4X0X0XyXqX0XyX0XaX9X,X9XqX0X",
"9X0XqX0X9XrX9XtX9X9XyX9XtX9XuXb.  ;.h.> x j.%.  @ $   4 j.%.. ;.h.> h 9X3X4X0X2X4XyX0XiXyX1X1X9X0XqX",
"9X4X3X9X7X9XtX2X4XyXtXiX2X9XpXb.  %.2.@ > 3.Z   : 6 X > 3.n   %.2.$ h 3XqX0X9X9X0X0X9X9XwX2X9X7XqX9X",
"9X1X1X2XqX9X9X9X9X9X9X9X4X4XtXb.  i f   X f :   +X7X-   k :   i d   p 9X9XqX9XqXqX9X0X9XiX0X0XqXqXuX",
"yX0X3X9X4XrX9XqXtX9XtX9X2X9XeX&XV i ; V g 7 p V 1X9X{ k 7 d ` a 7 _ n.4XqX0XqX0XqX0X9X4XiX0XqXqXiXlX"
};
