/* XPM */
static char *_0cc394810c14b96e533fe8bffd352bdXT2I6rs2nwieum9e[] = {
/* columns rows colors chars-per-pixel */
"50 50 176 2 ",
"   c #000000",
".  c #080607",
"X  c #070906",
"o  c #060709",
"O  c #0A070B",
"+  c #07090A",
"@  c #0B0B0C",
"#  c #0F0D11",
"$  c #100F12",
"%  c #0E1112",
"&  c #111111",
"*  c #19171C",
"=  c #1B1D1D",
"-  c #1C211D",
";  c #1A1E20",
":  c #1F2021",
">  c #222326",
",  c #232529",
"<  c #25292D",
"1  c #2C2C2C",
"2  c #262C30",
"3  c #2C2E32",
"4  c #2C3032",
"5  c gray27",
"6  c #4A4E5A",
"7  c #4B5156",
"8  c #4D535A",
"9  c #52555C",
"0  c #61615F",
"q  c #574D62",
"w  c #555C60",
"e  c #585C65",
"r  c #56536B",
"t  c #5D5D6D",
"y  c #5D5C72",
"u  c #5C636B",
"i  c #5D6173",
"p  c #616161",
"a  c #636375",
"s  c #636976",
"d  c #65657D",
"f  c #66697A",
"g  c #6B6E7D",
"h  c #667376",
"j  c #6D757E",
"k  c #6F7A7F",
"l  c #928477",
"z  c #93877A",
"x  c #6A6C83",
"c  c #6D6D89",
"v  c #6D7382",
"b  c #6F7885",
"n  c #717585",
"m  c #737A84",
"M  c #737489",
"N  c #757B8B",
"B  c #7A7D8E",
"V  c #777D90",
"C  c #7A7E90",
"Z  c #748085",
"A  c #7C848D",
"S  c #7D898F",
"D  c #7D8392",
"F  c #7D839B",
"G  c #7F8898",
"H  c #80879E",
"J  c #838B9B",
"K  c #87939C",
"L  c #89949D",
"P  c #8D9B9D",
"I  c #B1A286",
"U  c #B2A68B",
"Y  c #B4A98E",
"T  c #B6AD92",
"R  c #8288A0",
"E  c #898FA0",
"W  c #8790A1",
"Q  c #8B95A4",
"!  c #8E9AA5",
"~  c #8D95A9",
"^  c #8E9AAA",
"/  c #9199A6",
"(  c #919CAC",
")  c #919DB4",
"_  c #8FA5A6",
"`  c #95A2A7",
"'  c #95A2AC",
"]  c #98A5AC",
"[  c #95A9AF",
"{  c #9CABAF",
"}  c #95A2B3",
"|  c #98A5B5",
" . c #97A9B4",
".. c #9CABB4",
"X. c #97A5BA",
"o. c #9CA7B8",
"O. c #9DACBB",
"+. c #9FB0B5",
"@. c #9FB0BC",
"#. c #A3ACB4",
"$. c #A2AFBD",
"%. c #A1B0B5",
"&. c #A3B4BD",
"*. c #A7B8BC",
"=. c #A9BBBD",
"-. c #B4B2BA",
";. c #BAB5BD",
":. c #D6C598",
">. c #DACC9E",
",. c #DBCFA3",
"<. c #DCD2A5",
"1. c #DED4A9",
"2. c #E1D7AC",
"3. c #E1D9AE",
"4. c #E2DCB3",
"5. c #9FB0C1",
"6. c #A1AFC1",
"7. c #A4B4C1",
"8. c #A5B9C1",
"9. c #A9BDC4",
"0. c #ACBECA",
"q. c #BFB7C0",
"w. c #C3BCC4",
"e. c #AEC2C6",
"r. c #AEC2CA",
"t. c #B1C3C6",
"y. c #B4C8C7",
"u. c #B2C5CB",
"i. c #B5CACE",
"p. c #B6D3CE",
"a. c #B2C7D1",
"s. c #B6CCD3",
"d. c #B9CED2",
"f. c #BDD3D5",
"g. c #BFD8D7",
"h. c #BED5D9",
"j. c #BFD8D9",
"k. c #C0D5D6",
"l. c #C1D7D9",
"z. c #C3DBDB",
"x. c #C8DFDF",
"c. c #C6E1DE",
"v. c #C9E2DF",
"b. c #E8E5C1",
"n. c #C4DEE2",
"m. c #C6E2E0",
"M. c #CCE6E3",
"N. c #CDE9E6",
"B. c #CBE5EB",
"V. c #CEECE9",
"C. c #D1E7E5",
"Z. c #D1EBE6",
"A. c #D3EDEA",
"S. c #D9EDEB",
"D. c #D5F2EC",
"F. c #DCF1EE",
"G. c #D5F5F1",
"H. c #DDF3F1",
"J. c #DAFAF5",
"K. c #DEFEF9",
"L. c #EDEFF1",
"P. c #E4F4F2",
"I. c #EAF6F5",
"U. c #E3FBF6",
"Y. c #EFFBF7",
"T. c #E3FFFB",
"R. c #EAFEFC",
"E. c #F3F1F3",
"W. c #F9F6F7",
"Q. c #F1F8F6",
"!. c #F6FAFA",
"~. c #F7FDFB",
"^. c #F1FFFF",
"/. c #F6FDFC",
"(. c #F9FDFC",
"). c #FEFEFE",
/* pixels */
"4.<.Y                                                                                         I 3.<.",
">.,.U                                                                                         U >.<.",
"T Y l                                                                                         z Y Y ",
"      a M J / ] { ] ` ] #.-.;.;.;.;.;.;.q.w.w.w.w.w.w.w.w.q.;.;.;.;.;.;.-.#.] ` ] { ] / J M a       ",
"      M ( 0.f.x.M.m.c.M.S.L.E.E.E.E.E.E.E.E.W.W.W.W.W.W.E.E.E.E.E.E.E.E.L.S.M.c.m.M.x.f.0.( M       ",
"      J 0.B.G.J.T.T.T.^.).).).).).).).).).).).(.!.!.(.).).).).).).).).).).).^.T.T.T.J.G.B.0.J       ",
"      ! f.G.J.G.U.R.^.(.).).).).).).).).).).).).).).).).).).(.).).).).).).).(.^.R.U.G.J.G.f.!       ",
"      ] x.J.G.N.S.I./.).).).).).).).).).).).).).).).).).).).)./.).).).).).).)./.I.S.N.G.J.x.]       ",
"      ..N.T.G.N.S.I.).).).).).).).).).).).).).).).).).).).).).).(.).).).).).).).I.S.N.G.T.N...      ",
"      { M.K.G.N.S.I.).).).).).).).).).).).).).).).).).).).).).).).).).).).).).).I.S.N.G.K.M.{       ",
"      ] v.J.G.N.S.I.(.).).).).).).).).).).).).).).).).).).).).).).).).).).).).(.I.S.N.G.J.c.]       ",
"      ` c.K.G.V.S.I.(.).).).).).).).).).).).).).).).).).).).).).).).).).).).).(.I.S.N.G.J.c.]       ",
"    @ P z.J.G.A.S.I./.).).).).).).).).).).).).).).).).).).).).).).).).).).).).(.I.S.V.G.J.v.`       ",
"    = A y.N.A.A.S.I.~.).).).).).).).).).).).).).).).).).).).).).).).).).).).).(.I.S.V.D.D.g.P +     ",
"  . < h { p.m.Z.F.I.~.).).).).).).).).).).).).).).).).).).).).).).).).).).).).(.I.S.Z.V.m.t.A #     ",
"  @ 4 u K =.f.M.S.I.~.).).).).).).).).).).).).).).).).).).).).).).).).).).).).).Y.F.Z.m.d. .s &     ",
"  @ 4 9 S ..i.x.S.I.!.(.).).).).).).).).).).).).).).).).).).).).).).).).).).).(.Y.F.M.f.9.L e *     ",
"o $ 4 8 Z ` e.z.A.P.Q.~.).).).).).).).).).).).).).).).).).).).).).).).).).).).!.I.D.m.i.+.S w > .   ",
"  # 3 7 k ! *.k.C.F.P.Y.!.).).).).).).).).).).).).).).).).).).).).).).).).!.Y.P.H.Z.z.t.] m 8 , o   ",
"  O < 7 j L &.d.M.A.S.P.Y.).).).).).).).).).).).).).).).).).).).).).).).).Y.F.S.A.m.f.*.! m 6 >     ",
"  @ < 8 b K ..r.z.N.N.A.P.!.).).).).).).).).).).).).).).).).).).).).).).~.P.D.Z.x.l.e...L j 7 , X   ",
"  . > 8 b K ' &.i.z.M.D.U.^.(././.).).).).).).).).).).).).).).).)././.(.^.U.A.x.f.u.&.} K j 8 , X   ",
"    - 9 m K ! ' &.u.z.D.U.R.R.R.R.U.U.).).).).).).).).).).).).).U.R.R.R.U.H.M.f.9.#.} ( W m 9 :     ",
"    = w N K Q ! / ..u.l.v.v.M.N.N.N.N.N.N.N.N.N.N.N.N.N.N.N.N.N.N.N.N.M.v.z.i.9.#.' ( ^ ^ D e * o   ",
"  . = e D Q Q Q ! / [ %.{ ! P [ &.9.9.9.9.e.r.i.i.i.i.u.u.r.0.0.9.8..._ ! ] ..} ' ( Q ( } Q a &     ",
"    * u J ( ^ ~ ( ' ( K m 7 2 & o                                     + < g J ( } ( ^ } o.( v +     ",
"    & s W } ( ! } o.} J u 3 @                                           # t E | O.} ( | O.} m .     ",
"    @ f ~ o.} ^ | 8.&.! u , . o                                         + f ( 7.8.o.' | O.} N o     ",
"    + v ( o.} ^ O.i.s.&.b ;   o 0 p p p p p 5 5 5 5 5 5 5 5 5 p p p     . G 8.d.r.@.} | O.} N       ",
"    + j ( o.} ~ &.f.v.f.Q %     p p p 5 p 5 5 5 5 5 5 5 5 5 5 p p p       } h.n.d.&.} | O.} N       ",
"    o v ( o.} Q 8.l.A.m.O.X     p p 5 5 5 5 5 5 5 5 5 5 5 5 5 p p p       7.m.N.f.8.} | O.| B       ",
"    . j ( o.} Q 8.l.A.c.$.      p 5 5 5 5 5 5 5 5 5 5 5 5 5 5 p p p       7.c.N.l.&.' } O.| B       ",
"    + g ( o.} Q 8.l.Z.x.O.      5 5 5 5 5 5 5 5 1 1 1 5 5 5 5 5 p p       O.z.N.l.&.' } 5.| N       ",
"    X g ( o.} ! &.l.N.z.O.      5 5 5 5 5 5 1 1 1 1 1 1 1 5 5 5 5 p       O.l.N.f.&.( } 7.} V       ",
"    . v ( o.} ^ 8.j.N.z.O.      5 5 5 5 5 1 1 1 1 1 1 1 1 1 5 5 5 5       O.l.M.f.&.( | 6.| C       ",
"    . n ( o.} ^ 8.l.N.l.O.      5 5 5 5 1 1 1 1 1 1 1 1 1 1 5 5 5 5       O.l.N.j.&.( | 7.| V       ",
"    . n } o.} ^ 8.l.N.l.O.      5 5 5 5 1 1 1 1 1 1 1 1 1 1 1 5 5 5       O.z.M.f.&.( | 7.} C       ",
"    X M } O.} ^ 8.j.N.z.O.      5 5 1 1 1 1 1 1 1 1 1 & 1 1 1 5 5 5       O.l.N.j.&.Q | 7.| B       ",
"      N } O.} ^ &.j.N.l.O.      5 5 1 1 1 1 1 1 1 1 & & 1 1 1 1 5 5       O.l.N.j.&.^ | 7.| V       ",
"      N } 6.} Q &.l.N.z.O.      5 5 1 1 1 1 1 1 1 & & & & 1 1 1 5 5       O.z.N.l.&.! | 7.| B       ",
"      B o.7.| W 8.l.A.c.&.      5 5 1 1 1 1 1 1 & & & & & 1 1 1 5 5       &.c.Z.l.&.( | 7.o.D       ",
"    o B o.7.| W 8.z.D.v.&.      5 5 1 1 1 1 1 1 & & & & & 1 1 1 5 5       &.x.V.l.8.( | 7. .A       ",
"      N } O.} W 8.j.N.l.O.      5 1 1 1 1 1 1 & & & & & & 1 1 1 1 5       O.l.v.f.&.( } O.} N       ",
"      x ~ X.} W 9.j.n.d.o.      5 1 1 1 1 1 & & & & & & & 1 1 1 1 5       o.s.z.d.&.( } o.~ v       ",
"      a F ^ ^ H 8.s.s.0.}       5 1 1 1 1 1 & & & & & & & 1 1 1 1 5       ) 0.a.r.o.Q ^ ~ F d       ",
"    o r c F H B } $.o.( R       5 1 1 1 1 1 & & & & & & & 1 1 1 1 5       H ( | | Q D G F c r       ",
"      q r y a a N C V M d       1 1 1 1 1 & & & & & & & & & 1 1 1 5       d v M v s t i y r q       ",
"U U l . . o + o X               1 1 1 1 & & & & & & & & & & 1 1 1 1           o @ % # @ X o   z T U ",
",.:.I                           1 1 1 & & & & & & & & & & & 1 1 1 1                           T 1.3.",
"2.1.I                           1 1 & & & & & & & & & & & & & 1 1 1                           T 4.b."
};
