/* XPM */
static char *_9d6e52a15ae498be4751228c583a8f2r4EnPyw65tq4y37f[] = {
/* columns rows colors chars-per-pixel */
"50 50 39 1 ",
"  c #D4BF91",
". c #D5C496",
"X c #D8C495",
"o c #D6C799",
"O c #D8C79A",
"+ c #D7C99B",
"@ c #D9CA9D",
"# c #D7CCA0",
"$ c #DACDA1",
"% c #DACFA3",
"& c #DCCFA3",
"* c #DBCFA4",
"= c #DCCFA4",
"- c #DBD0A3",
"; c #DCD0A3",
": c #DBD1A5",
"> c #DCD1A6",
", c #DED4A7",
"< c #DFD2A8",
"1 c #DFD6AB",
"2 c #DED4AC",
"3 c #DFD6AC",
"4 c #DED9AB",
"5 c #DED8AC",
"6 c #E0D4A7",
"7 c #E0D4AA",
"8 c #E1D7AB",
"9 c #E0D7AC",
"0 c #E0D9AC",
"q c #E2D7B0",
"w c #E2D8B0",
"e c #E2DDB2",
"r c #E4DEB3",
"t c #E3DAB4",
"y c #E2DDB4",
"u c #E5DCB6",
"i c #E5DEB9",
"p c #E4E0B9",
"a c #E8E5C1",
/* pixels */
"y::1%@<>1%@7>1@0y:*7%@>>>%%3>1+0r:*1%+,>1%@1><o+0:",
"@%%+%@@>o@9:u.%w%%%O%@%>@@1>yo%e%%%o%@@<O@3<wO@%@:",
"1%.o+3-%%%-@%+o-3;.O+1>%%&%%%+o*7%.o@3=%%%-%%++@%,",
"*17@%@1%11@>%O%--91@%%<;><%>%+%:>77+%%1%11@>%@%>%@",
"+>y>@1>1>1:%+%%1+:u:%1<<><>%@%%7@:i:@1>1:1:%@%%%+@",
"@@:%101%@%>@%@+%%@:>797*@%>@@%+%%@:*109%@%>@%%+@+@",
"+3%@%t%@+o.@%@%++9%@%w%%++.@%@%o+4%+@t%%oo.@%%%@%@",
"%@:%@:%o+oo@%5%o@+%%@:%+@oo+:0%+@+%%@*%o@oo+:1:<>1",
"@%>%%>+.+;+%1:@%+%>%%>+.o@+%1>+%@%1%%>+.+%+@1>%>1,",
"3%@:-%+o@o%+%%>@5%+--@@@@+%@@%1@0%@:-%+o@o%@%%11>1",
"%.%<;@@>>%>@.+%1%.%1>@%>>:>@.O%7%.%1:@%,>->@.+%%@:",
".o%:1%@>99%@o@@%++%>6%%>99%+o+@%+o%>1%@-00%+.++@1=",
"@%@<%>%%wp0%+o%>@@@,&>%&wu1%++%1@%@1%>%%ei9%++@%@:",
">>1<9%;11011%%@-7:917%>1791>%%@&1:1<9@:11w1>%%@@%1",
">7<wi07,7>1*+<>>>9,0u07>1>1-o1>::7>0p07<7:1:+>>1%+",
"0>1109,7>%**1>7<0>1107<1>@-*7-3>0>9100>7>%%><>,%.@",
"w::<-@>>>%%1<1@9w::1:%>:>%%1>1@0e>:1-%1>>%@7<<@+o@",
"%%%+%@@>+@1>wo%0%%%@%%%:+@1>wO%w%%@+%@@>O@1>w+@@@@",
"1%oo@1*%%-*@%++:7%.o@>>%%%*%%+o-1*.o+1>%%%-%%O+>>1",
":11@%%1%17@:%+%*-11@%%<=<<%>%O%::71+%%1%11%>%+%>3>",
"@>w>%1<<>1:%@@%1@>u>%1>>>1>%O%%1@:y>@1>1>1>:@%-1>3",
"%%>*101%@%>@%%@%%#>:631*@%>@%%+%%@:-197%@%1:%>%@1>",
"+1%@%w%%+oX@%@%o+9%@%0-%+o.@%+%o+0%+%t%%++%%%@%@@1",
"@@-%@:%o@oo+:0%o@@%%%:%+@o.+:w%+%@%%@:%o@@>-oo@1:%",
"@%>%%>+.o&o%1>@%+%>%%-@.o%+%<:@%+%<%%>O.o-%11@%%1@",
"0%@::%@o@O%@%%>@9%@-:%++@+%@%%<%0%@%*%+O@o@:w*%1>1",
"%o%>:@%>;->@.o%1%.%1:%@;&->%.o%1%.%1>@%>-%%%>:709:",
"oo%><%@>90%Oo@+%+o%:>%@>79%+o@+%+o%:1%@>77%1%@%w%%",
"+%%<%>%%wi3%++%<@%@1%>%;wu7%o+%<@%@1%>%%eu>%%%@:%.",
"1:1>3%>11011%%@-1:117&>11016%%@*1>717@:110%%>%%>+ ",
"13>0y9111<7>+6%->3>0u91>1>1;.7::>9>0p91<1>1%@:%%+O",
"0>>1>%1>1%%1>1@30>7109<1>%%;7>7>3>5>0017:@%o%<:@%>",
"%%%@%@%>O@1>to%0w>:1>=>>>%@7>6%q:>1-@1>>%@oo%:<%+%",
"1=ooO<:%%%*%%+@;%%%@%@%>@@1<eo%+%@O%@@<+@1@%%,&>%@",
":7<@%%1%<1@,%+%:7-o+@<>-%--%%+o1%.o@1-%%%:,>117@-7",
"+>e:%1>1>1>%@%%<:7<@%%>%1<%,%+%*71@%@>%16%>110i01>",
"%%::<91%@%>@%%@%+:t>%,><>6-%+%%@>i>@1>1>1><>7107*<",
"@1%@%w%%+o.@%@%+%+:>191%@%>@%%+%@>:101%@%>@%;1>O++",
"%%%%@:%+@+oo%9%o@1%@*9&%+o.@%+%+4%+%y&%oo.@%@:71@@",
"@%>%%>+.o%o@1>@%%@%%%-%o+o.+:w%%+%%@:%++o.+:7@:t>+",
"9%@%*%@+@o%@%%1@@%>%%>@.o&o%3>@@%1%%>+.o%+%<:%%:%>",
"%.%,>@%>>->@.+%70%@-:%@+@O@+%%70%@*:%+o@+%@@%+1%@+",
"o+%:<%@>00%+.@+>%o@,*@%>:&>%.o%%.%1*@%>>:>@.o%@*%+",
"@%%,%>%%wi9%@+%>+o%>>%%>09%+o@ooo%>1%@:99%+o@+%>%%",
"1>111@>110<7%%@%@%%>&>%>wu3%oO%O%+1@>%%wu7%+@1%@--",
">7>0y97<1:7>+<:>1;1>>@>110>4%%+9%%,%@>>7<;7>>%.%1:",
"%;1-&7>1>%9:>@00:*1%@;>>>-9>3+7@%@+@+%>+@7>w+oo%:1",
"%@+@@%>+@1<w.%0&%%@%@%>@@3<yo%w7&.o+1:%%--%%++%%1%",
"%oo+1:%%-%%%++%7*+O@>-%%%*%%oo%>77@%%1%11%>%@>>110",
"9>+%@1@11@,%o%%>9>@@%>%11@<%O@%+>p:@<>1>1:%+%>1<wa"
};
