/* XPM */
static char *e6b057fbd2a34957b49ada02bc259e50voItZWw4ekvD6ydw[] = {
/* columns rows colors chars-per-pixel */
"50 50 221 2 ",
"   c #96591C",
".  c #9B6417",
"X  c #A0690A",
"o  c #A87407",
"O  c #A16D1C",
"+  c #AC791D",
"@  c #964F23",
"#  c #975328",
"$  c #95552C",
"%  c #965A2C",
"&  c #9A5C2D",
"*  c #8E533B",
"=  c #975534",
"-  c #965B32",
";  c #995D33",
":  c #955D3C",
">  c #995E3A",
",  c #8C6422",
"<  c #9D6726",
"1  c #9D642B",
"2  c #9A6333",
"3  c #9E6A33",
"4  c #97633C",
"5  c #99623D",
"6  c #986A3A",
"7  c #9B723E",
"8  c #A46B26",
"9  c #A16428",
"0  c #A46D2A",
"q  c #A5722D",
"w  c #AA742A",
"e  c #AB7828",
"r  c #B07E2D",
"t  c #A57233",
"y  c #A97A36",
"u  c #955E42",
"i  c #976242",
"p  c #9A6543",
"a  c #9B6A45",
"s  c #9B6B49",
"d  c #9D704D",
"f  c #9E7652",
"g  c #A6764A",
"h  c #A27956",
"j  c #AD8203",
"k  c #BB9300",
"l  c #B8900C",
"z  c #B68C14",
"x  c #AF802E",
"c  c #B2822E",
"v  c #B78B2A",
"b  c #BF9422",
"n  c #BD932E",
"m  c #B28331",
"M  c #B88A36",
"N  c #BB8F34",
"B  c #BE9433",
"V  c #BE943C",
"C  c #C29C0E",
"Z  c #CDB105",
"A  c #D4BB00",
"S  c #D3B908",
"D  c #CCAC1A",
"F  c #D8BF12",
"G  c #D7BD1D",
"H  c #C29928",
"J  c #C39C33",
"K  c #C09739",
"L  c #C29A39",
"P  c #CBA826",
"I  c #C6A12D",
"U  c #C9A52A",
"Y  c #CCA92C",
"T  c #D0B023",
"R  c #D2B324",
"E  c #D6B924",
"W  c #D9BE27",
"Q  c #D2B32C",
"!  c #C6A033",
"~  c #C9A533",
"^  c #CAA539",
"/  c #D1AF35",
"(  c #D2B435",
")  c #DAC600",
"_  c #DDCA00",
"`  c #DCC516",
"'  c #DCC41B",
"]  c #DEC919",
"[  c #E0CE08",
"{  c #E8DD00",
"}  c #EBDD0B",
"|  c #E1CC16",
" . c #E1CD18",
".. c #E4D214",
"X. c #EADC12",
"o. c #E3D019",
"O. c #EEE305",
"+. c #EEE20B",
"@. c #F3EC03",
"#. c #F0E70C",
"$. c #F4EC0A",
"%. c #F6F002",
"&. c #F9F502",
"*. c #FFFE00",
"=. c #FFFF0C",
"-. c #F2E916",
";. c #FEFE14",
":. c #FFFF1B",
">. c #E5D52C",
",. c #EFEA2F",
"<. c #FFFF22",
"1. c #F6F42B",
"2. c #FEFF2D",
"3. c #FEFF35",
"4. c #F4F23A",
"5. c #FEFF3C",
"6. c #BC9042",
"7. c #A8865E",
"8. c #958E7B",
"9. c #9B957D",
"0. c #A68A63",
"q. c #AA8866",
"w. c #B1886A",
"e. c #AD936D",
"r. c #B28C7C",
"t. c #A79A7C",
"y. c #B69A76",
"u. c #B7A47B",
"i. c #C49F4F",
"p. c #CAA747",
"a. c #D2B752",
"s. c #E0CB59",
"d. c #F4ED48",
"f. c #FEFF43",
"g. c #FFFF4D",
"h. c #FDFF51",
"j. c #F4F05B",
"k. c #FAFF5D",
"l. c #E0CC7E",
"z. c #FCFF63",
"x. c #F6FF6C",
"c. c #FEFF6C",
"v. c #F9FF76",
"b. c #FEFF7D",
"n. c #918E84",
"m. c #949185",
"M. c #94928A",
"N. c #989791",
"B. c #A59D82",
"V. c #AEA484",
"C. c #AFA889",
"Z. c #B3A887",
"A. c #BBAA83",
"S. c #A1A09D",
"D. c #A6A5A4",
"F. c #AEAEAD",
"G. c #AFB0B1",
"H. c #B4B4B4",
"J. c #BBBBBB",
"K. c #C09E89",
"L. c #C3AB84",
"P. c #C3B38B",
"I. c #C5BA93",
"U. c #CCBD93",
"Y. c #D3BE90",
"T. c #CBB7A6",
"R. c #CEC196",
"E. c #CEC39B",
"W. c #D5C496",
"Q. c #D5C69A",
"!. c #D8C79A",
"~. c #D7C99C",
"^. c #D9CA9D",
"/. c #E6D58C",
"(. c #E1CC99",
"). c #F5FF83",
"_. c #FAFF86",
"`. c #FDFF8C",
"'. c #F8FF9A",
"]. c #D7CCA0",
"[. c #DACEA2",
"{. c #DCD1A5",
"}. c #DDD2A6",
"|. c #DED3A8",
" X c #DED4A9",
".X c #DFD6AC",
"XX c #DED8AC",
"oX c #D9C4BB",
"OX c #ECDAA1",
"+X c #E0D6AA",
"@X c #E0D6AB",
"#X c #E1D8AD",
"$X c #E2DBB3",
"%X c #E5DEB8",
"&X c #FDFEA7",
"*X c #F3FFAC",
"=X c #E9E3B8",
"-X c #EFF5B3",
";X c #F2FFB1",
":X c #FEFFB3",
">X c #F2FFBC",
",X c #FFFFBB",
"<X c #C4C4C4",
"1X c gray80",
"2X c #D8D8D8",
"3X c #E6DCD8",
"4X c #E8E5C1",
"5X c #F8FFC2",
"6X c #F3FFCB",
"7X c #F5FFD5",
"8X c #F8FFD8",
"9X c #FBFFDC",
"0X c #E7E5E3",
"qX c #EDEDED",
"wX c #FAFFE4",
"eX c #F6F2EF",
"rX c #FCFFEB",
"tX c #F3F4F4",
"yX c #FDFFF3",
"uX c gray99",
"iX c white",
/* pixels */
"$X{.{. X[.^.|.{. X[.^.+X{. X^.#X$X{.[.+X[.^.{.{.{.[.[..X{. X^.#X$X{.[. X[.~.{.{. X[.]..X{.|.Q.^.#X{.",
"^.[.[.!.[.^.^.{.Q.^.+X{.%XW.[.$X].[.[.!.[.^.[.{.^.^. X{.$XQ.[.$X[.[.[.Q.[.^.^.|.!.^..X|.$X!.^.[.^.[.",
" X[.W.Q.!..X{.[.[.[.{.^.[.!.Q.{..X{.W.!.!. X{.[.[.[.[.[.[.^.Q.[.+X[.W.Q.^..X[.[.[.[.{.[.[.!.!.^.[.{.",
"[. X+X^.[.^. X[. X X^.{.[.!.[.{.{.+X X^.[.[.|.{.|.|.[.{.[.~.[.{.{.+X X!.[.[. X[. X X^.{.[.^.[.{.[.^.",
"Q.{.$X{.^. XM.J.[. X{.[.^.[.[. X^.{.%X{.[. X|.|.{.|.{.[.^.[.[.+X^.{.%X{.^. X{. X{.N.F.^.^.[.[.[.~.^.",
"^.^.{.[. X#XJ.iXQ.[.{.^.[.[.~.[.[.^.{.[.|.+X X[.^.[.{.^.^.[.^.[.[.^.{.[. X#X+X[.^.1XiXR.[.[.^.^.^.!.",
"Q..X[.^.[.$XF.iXQ.Q.W.^.[.^.[.!.!.a s a a d 5 e.!.!.W.^.[.^.[.Q.~.XX[.^.^.$X[.[.Q.J.qX^.[.].[.^.[.^.",
"^.^.[.C.V.C.<XiX9.V.t.U.{.XX[.W.A.1 1 1 1 1 9 6 W.Q.Q.^.{..XQ.W.Q.W.^.^.^.[.[.U.V.1XtX8.I. X{.|.{.{.",
"^.[.C.iXiXiXiXiXiXiXiXM. X{.^.f 1 ~ ! L L L ^ m = A.!.[. Xh > 5 > 5 > p [.{.!.n.iXiXiXiXJ.{.[.{. X{.",
".X[.W.M.M.M.2XiXN.n.M.C.[.R.u.3 r J R | | | o.F k , A.A.e.j k k k k + y n.n.n.<XiXiXiXiX2Xn.M.m.Q. X",
"].W.[.|.{.^.F.iX{.[.{.^.W.7.& J ~ V ] *.*.*.*.*.*.C > >   @.*.*.*.*.E p.iXiXiXiXiXiXiXiXiXiXiXiXB.[.",
"W.Q.[.{. X[.H.iX{.+X[.^.Q.e.& N Q +.j.5X,X,X'.x.*.k u k _ &.*.*.*.*.$.X.a.i.w.T.iXiXiXiX1XZ.Z.Z. X[.",
"Q.[.^.|.[.{.D.0X.X=X#X[.^.0.& N E *.v.iXiXiX>X).*.k s _ *.=.;.;.;.;.*.*.P e * r.qXiXiXtXD.!.^.[.^.[.",
"{.{. X|.+X[.{. Xf s h h f i 5 B W *.k.6XyXiX<.*.*.] V +.=._.>XrXyXrXf.&.Y m - P. X<XqXI.[.[.^.^.[.{.",
"{.+X|.$X%X#X XQ.7 < X X X X . r C *.5.).=X=X;.*.*. .K +.;.*X9XiXyXrXf.&.Y c - P.+XJ.qX^.~.{.{. X[.^.",
"XX{. X X#X+Xe.# V R *.*.*.*.@.- . *.*.*.D n &.*.*.] 6.O.:.wXiXiXwX>X3.*.( M - P.{.1XiXQ.|.{.{.[.W.^.",
"#X{.{.|.].A.7 e ` >.k.v.`.v.j.y + ' +.*.} | *.*.*.#.] &.;.l./.b.c.h.D j w 3 - P.{.9.n. X|.|.^.!.Q.^.",
"[.[.[.^.P.# c / *.2.>XwXiX9X-Xp.J 6.' *.*.*.*.*.*.*.*.*.&.H D *.*.*.. * p 5 $ P.!.^. X|.$X~.^.^.^.~.",
"{.[.Q.Q.P.- r ~ &.5.rXyXiXc.1.! U +.4._.&X,X,X,X,Xz.*.*.&.U J E z   e m m m M 6 0.[.{.[.[.!.!.{.{.{.",
"[. X X^.P.$ c ~ &.5.iXiXyXf.&.P E ;.z.6XyXiXiXiXiX_.*.*.&.U L L q 4 v Q Y Y Q e 2 R.[.{.[.!.[.{..X[.",
"Q.{.$X{.P.- c ~ &.5.iXrX5X3.*.&.1.'.6XiXiXiXiXiX6Xz.*.*.&.U L V G O.%.&.&.&.&.' B 2 h {.^.[.{. X{. X",
"].[.{.[.U.- c ~ &.2.:X'.v.,.+.*.3.6XrXiXyXwX,X&X).f.*.*.&.U J R X.*.<.3.f.3.*.o.L w 3 U.[.{.[.^. X{.",
"~. X[.^.P.$ c / *.*.*.*.*.R J %.f.iXiXiX7X*X=.*.*.*.*.*.&.I R *.*.*.).5XiX5X*.| K ~ J & 0.^.[.^.^. X",
"^.^.{.[.^.A.7 w G X.*.*.*.R J %.<.b._.b.z.h.*.*.*.*.*.X.' J R *.*.*.'.wXiX,X*.| K ! n ; 0.Q.^. X{.[.",
"^.[.{.[.[.{.e.# V Q *.*.*.R J %.*.*.*.*.*.*.*.*.*.*.*.R V L R *.*.*.,XiXiX,X*.| K ! B 2 e.^.[.[. X^.",
".X[.^.{.{.[.!.U.a 8 R R R I J P ' *.*.*.*.*.*.$.P R R I J K R *.*.*.,XiX7X'.*.| K ! n ; e.[.[. X{. X",
"[.Q.[.{.{.^.[.[.4 < ! ! ! J J V P &.&.&.&.&.&.X.K L L I U I E &.&.&.&XrX*Xv.&.' L ! B & q.{.+X#X+X[.",
"Q.Q.[.{.|.[.e.4 { &.*.*.*.R V J J I I I I I I I J J V } *.*.O.H H J -.=.=.-.J J J ~ J & 0.^.[.$X[.[.",
"!.[.[.|.[.Q., o 1.5.g.g.g.>.T J J J J J J J J J J P R d.h.g.d.a.( R S A } | J J J v r f A.[.^.{.[.W.",
"{.{. X|.I.$ A =.*X7XiXiXiXh.&.U J J J K L K L J K [ *.:XiXiXrX5Xz.*.. u J ^ ~ ~ ~ 9 s [.{.[.[.{.!.Y.",
"{..X|.#XE.> A *.f.b.iXyX9X5.&.P J L R ........' H s.`.9XiXiXrX>Xk.*.z t q t q q w 0.R.[.^.{.[.[.!.Q.",
".X{.{. XI.> A *.*.3.iX9X;X3.&.P J V ] *.*.*.*.$.b (.iXiXiXiXrX>Xk.*.W L 2 p p 5 > Q.[.Q.[.|.{.^.[.{.",
"].[.[.^.P.- A *.*.=.f.3.2.=.&.1 O O.4._.:X,X;.[ 2 K.iXiXiX7X'.2.;.*.E B - 4 % y.^.^.Q.Q.[.{.|.[.^.].",
"|.[.Q.Q.P.- Z &.*.*.*.*.*.@._ % . ;.z.6XrXyX:.) * r.9X9X9X*Xx.*.&.$.T B - - $ L.^. X^.[.[.{.[.{.[.^.",
"[.+X|.^.P.# c Q *.*.*.*.*.o 2 v a.*X9XiX7X;X;._ : l :.:.:.;.=.*...J ! B 2 - # A.[.{.{.{. X X+X^.{. X",
"^.{.$X{.R.q.t c ..+.} 1.h.q p n a.).'.,X`.x.=._ p j +.&.*.*.&.+.G V J B % a 7.Q.+X[.{. X X#X%X#X X{.",
"].[.{.{.|.+Xe.# J ^ H (.iXq.- N R *.*.*.*.*.*._ : t ^ #.*.*.#.K J J ~ J & e. X{. X{.|.{.+X X#X+X[.|.",
"~. X[.^.[.$XU.A.3 q < L.iXq.> N E *.*.*.*.*...D q q t D o. .E J J J r t - y.M.Z.[.{.^.[.{. X{.!.^.^.",
"^.[.[.[.^.{.[.!.s - * r.iXw.p B W *.*.*.*.*.J K / q * y ^ L J ! ! ~ 1 a s w.iXM.Q.W.^.[.^.{.+X X^.^.",
"^.[.{.[.[.{.!.W.W.P.oX0XiX3XT.7.. R R R R R J J J n v 0 2 3 2 2 2 2 - a oX3XiX0X<XA.!.{.+X^.{.$X{.Q.",
" X[.^.[.[.[.Q.W.^.t.iXiXiXiXeXw.g p.p.J J J J J J J J 1 5 - - - - 5 a h 3XtXiXtXqXZ.[.|.{.[.[.{.[.{.",
"[.Q.[.{.{.^.F.iXiXiXiXiXiXiXiXiXiXiXOXH ~ ~ ~ ! / w 5 1 8 8 0 8 1 # R.{.[.t.iXM.!.[.^.^.[.^. X[.^.Q.",
"Q.!.[.{.|.[.n.H.G.<XiXiXiXiXtXJ.F.G.y.+ c x r r c 0 2 9 8 1 1 9 6 q.|.[.^.I.H.B.{.{.^.W.Q.[.^.[.[.Q.",
"Q.[.[. X[.{.[.[.$XT.iXiXiXiXtXE.~.Q.P.# - $ > 5 a 2 w 0 8 % $ @ u.[.{. X[.^.{.+X+X[.~.Q.^.^.[.{.[.].",
"{.{. X X X^.{. X X Xm.H.iXS.9.[.^.[.^.P.I.P.4 - > 2 1 1 1 u.P.L.^.^. X^.{.[.[.$X%X+X[.^.^. X[.^.{.[.",
"[.+X{.#X$X+X+X|. X{.+Xn.iXZ.{.{. X{. X{.{.^.4 - - - 4 - 4 [.~.+X[.[.{.[.^.{.{.+X|.{.+X{.{.[.W.[. X{.",
"[.{. X{.[.+X{. X{.[.+XM.iXB.#X#X{.[. X[.^.{.[.[.[.^.|.[.|.^.+X^.[.[.!.[.^.].{.~.^.+X{.$X~.Q.Q.[.{. X",
"].[.!.[.^.[.{.~.^. X|.m.2XC.$X[.[.[.^.[.^.[.{.^.^..X|.$XQ.[.$X+X[.W.Q.!. X{.[.[.{.{.[.[.!.~.[.]. X^.",
"[.Q.Q.~. X{.[.[.{.[.[.[.W.^.[.+X[.!.!.^.{.{.[.[.[.[.[.[.Q.Q.[.{.+X+X^.[.[. X[. X X[.{.[.^.{.{. X X.X",
"+X{.!.[.^. X^. X X^.{.[.Q.[.[.{.+X{.^.^.[.{.[. X X^.|.[.!.^.[.!.{.=X{.^.|.{. X{. X{.[.^.[.{. X|.$X4X"
};
