/* XPM */
static char *_711043c41ba476e93691d9d5e1426e2Y9jvfhGtkpDaNOye[] = {
/* columns rows colors chars-per-pixel */
"50 50 41 1 ",
"  c black",
". c #734B22",
"X c #5F5F5F",
"o c #B37436",
"O c #D0A227",
"+ c #FFE566",
"@ c #FFE56B",
"# c #D4BF91",
"$ c #D5C496",
"% c #D8C495",
"& c #D6C699",
"* c #D8C79A",
"= c #D7C99B",
"- c #D9CA9D",
"; c #DACEA2",
": c #DCCFA4",
"> c #DBD0A3",
", c #DCD1A3",
"< c #DBD1A5",
"1 c #DCD1A6",
"2 c #DED4A7",
"3 c #DFD2A8",
"4 c #DFD6AB",
"5 c #DFD6AC",
"6 c #DED9AB",
"7 c #DED8AC",
"8 c #E0D4AA",
"9 c #E1D7AB",
"0 c #E0D6AC",
"q c #E0D9AC",
"w c #E1D9B0",
"e c #E2DDB2",
"r c #E4DEB3",
"t c #E3DAB4",
"y c #E2DDB4",
"u c #E5DCB6",
"i c #E4DDB8",
"p c #E4E0B9",
"a c #C6C6C6",
"s c #E8E5C1",
"d c white",
/* pixels */
"y<<4;-314;-814-qy<:8;-111;;514=qr<:4;=214;;513&=q<",
"-;;=;--1&-0<u$;w;;;*;-;1--41y&;e;;;&;--3*-53w*-;-<",
"4;$&=5>;;;>-;=&>5,$*=41;;:;;;=&:8;$&-5:;;;>;;==-;2",
":48-;-4;44-1;*;>>04-;;3,33;1;=;<188=;;4;44-1;-;1;-",
"=1y1-41414<;=;;4=<u<;433131;-;;8-<i<-414<4<;-;;;=-",
"--<;4q4;-;1-;;=;;-<    :-;1    ;;-<:4q0;-;1-;;=-=-",
"=5;-;t;-=&$-;-;==0;    ;==$    &=6;=-t;;&&$-;;;-;-",
";-<;-<;&=&&-<7;  =;    =-&&    =-  ;-:;&-&&=<4<314",
"-;1;;1=$=,=;4<-  ;1    $&-=    ;-  ;;1=$=;=-41;142",
"5;-<>;=&-&;=;  aa  >>  --=;  ;4  aa  ;=&-&;-;;4414",
";$;3,--11;1-$  aa  41  11<1  *;  aa  -;21>1-$=;;-<",
"$&;<4;-100;  aaddaa            aaddaa  >qq;=&==-4:",
"-;-3;1;;wpq  aaddaa            aaddaa  ;ei0;==-;-<",
"11430;,44q4  dddd  dd  ++++  dd  dddd  44w41;;--;4",
"183wiq82814  dddd  dd  ++++  dd  dddd  38<4<=114;=",
"q144q0281;:  dddd  aaOO++++OOaa  dddd  81;;1312;$-",
"w<<3>;111;;  dddd  aaOO++++OOaa  dddd  11;;833-=&-",
";;;=;--1=-4  dd  OO  ddOOOOdd  OO  dd  1*-43w=----",
"4;&&-4:;;>:  dd  OO  ddOOOOdd  OO  dd  ;;;>;;*=114",
"<44-;;4;48-  aa  @@  XXddddXX  @@  aa  ;44;1;=;151",
"-1w1;43314<  aa  @@  XXddddXX  @@  aa  4141<-;>415",
";;1:4q4;-;1-;    OO..  dddd  ..OO    08;-;4<;1;-41",
"=4;-;w;;=&%-;    OO..  dddd  ..OO    t;;==;;;-;--4",
"--<;-<;&-&&=<  aa  @@dddddddd@@  aa  <;&--1>&&-4<;",
"-;1;;1=$&:&;4  aa  @@dddddddd@@  aa  1*$&>:44-;;4-",
"q;-<<;-&-*;-;;1  ..  aaddddaa  ..  ;:;=*-&-<w:;414",
";&;1<-;1,>1-$&;  ..  aaddddaa  ..  41-;1>;;;1<8q0<",
"&&;13;-10q;      oo....oooo....oo      108;4;-;w;;",
"=;;3;1;;wi5      oo....oooo....oo      ;eu1;;;-<;$",
"4<435;144      >4  ..  ....  ..  18      q;;1;;1=#",
"453qy0444      >1  ..  ....  ..  01      14;-<;;=*",
"q1141;414;;414-  ..  OO    OO  ..  1qq48<-;&;3<-;1",
";;;-;-;1*-41t&;  ..  OO    OO  ..  >-411;-&&;<3;=;",
"4:&&-3<;;;:;;  oo    aaOO@@dd    oo  -3=-4-;;2:1;-",
"<83-;;4;44-2;  oo    aaOO@@dd    oo  <;;;<21448->8",
"=1e<;414141;-    83-;        =;:8    1;48;144qiq41",
";;<<304;-;1-;    <t1;        ;;-1    141413184q8:3",
"-4;-;w;;=&$-;-;=;=<  04;-;1-;  ;-1<4q4;-;1-;,41*==",
";;;;-<;=-=&=<q;&-4;  0:;=&$-;  =6;=;y:;&&$-;-<84--",
"-;1;;1=$&;=;41-;;-;  >;&=&$=<  ;=;;-<;==&$=<8-<t1-",
"0;-::;-=-&;-;;4--;1  1-$&:&;5  -;4;;1=$&;=;3<;;<;1",
";&;21-;11>1-$=;8q;-    =-*-    q;-:<;=&-=;--;=4;-=",
"&=;<3;-1qq;=$-=1;&;    1<:1    ;$;4:-;11<1-$&;-:;=",
"-;;4;1;;wi0;-=;1=&;    1q0;    &&;14;-<00;=&-=;1;;",
"41444-144q38;;-;-;;    1wu5    *;=4-1;;wu8;=-4;-<>",
"181qy0834<81=3<14,411  44q1  ;=0;;2;-1183,811;$;4<",
";,4<:8141;0<1-qq<:4;-  11>0  =8-;;=;=;1=-81w=&&;<4",
";-=;-;1=-43t&;w:;;-;-;1--53y&;w8:$&=4<;;>>;;==;;4;",
";&&=4<;;>;;;==;8:=*-1>;;;:;;&&;188-;;4;44;1;-1144q",
"01=;-4-44-2;&;;101--;1;44-3;*-;=1p<-31414<;-;143ws"
};
