/* XPM */
static char *_9c56209b4974b20f6d0b610f10cac65YqvVTdA5Vxw2rhAw[] = {
/* columns rows colors chars-per-pixel */
"50 50 42 1 ",
"  c black",
". c #734B22",
"X c #5F5F5F",
"o c #B37436",
"O c #D0A227",
"+ c #FFE566",
"@ c #FFE56B",
"# c #D4BF91",
"$ c #DCBAA0",
"% c #D6C496",
"& c #D6C699",
"* c #D8C79A",
"= c #D7C99B",
"- c #D9CA9D",
"; c #DACEA2",
": c #DACFA4",
"> c #DCCFA4",
", c #DBD0A3",
"< c #DCD0A3",
"1 c #DBD1A5",
"2 c #DCD1A6",
"3 c #DED4A7",
"4 c #DFD2A8",
"5 c #DFD6AB",
"6 c #DFD7AE",
"7 c #DED9AB",
"8 c #DFD8AE",
"9 c #E0D4AA",
"0 c #E0D7AB",
"q c #E0D6AC",
"w c #E0D9AC",
"e c #E1D9B0",
"r c #E2DDB2",
"t c #E4DEB3",
"y c #E3DAB4",
"u c #E2DDB4",
"i c #E5DCB6",
"p c #E4DDB8",
"a c #E5E0BB",
"s c #C6C6C6",
"d c #E8E5C1",
"f c white",
/* pixels */
"u115:-425:-925-wu1:9:-222::625=wt1:5:=323:-524&=w1",
"-::=:--2&-q1i%:e;::*:-:2=-52u&:r:::&:--2&-62e*---1",
"5:%&=5,:::,-:=&,6<%*=52::>:::=&:9:%&-6>:::,::==-:3",
":59-:-3:55-2:*:,,q5-::4<24-2:=:1299=::5:55-2:=:2:-",
"=2u2-525251:=::5=1i1:544242:-::9-1p1-525151:-:::=-",
"--1:5w5:-:2-::=::-1    :-:2    ::-1:5wq:-:2-::=-=-",
"=5:-:y:-=&%-:-:==q:    :==%    &=7:=-y::&&%-:;:-:-",
":-1:-1:&=    7:&-=:    =-&&    =-=::-    &&=151425",
"-:2::2=%=    1-:=:2    %&-=    :-:5::    :=-52:253",
"6:-1,:=  ssff  -8:=,,  --=:  :5-w:-  ffss  -::5525",
":%:4<--  ssff  5:%:52  2212  *:9:%:  ffss  -%=::-1",
"%&:15  ssffffss  =:            :=  ssffffss  ==-5>",
"-:-4:  ssffffss  --            5-  ssffffss  =-:-1",
"2254q  ffffffff    ff  ++++  ff    ffffffff  :--:5",
"294ep  ffffffff    ff  ++++  ff    ffffffff  225:=",
"w255w  ffffff$$$$  ssOO++++OOss  $$$$ffffff  23:%-",
"e114,  ffffff$$$$  ssOO++++OOss  $$$$ffffff  4-=&-",
":::=;  ffffff$$  OO  ffOOOOff  OO  $$ffffff  =----",
"5:&&-  ffffff$$  OO  ffOOOOff  OO  $$ffffff  *=225",
"155-:  ssff$$ff  @@  XXffffXX  @@  ff$$ffss  =:<62",
"-2e2:  ssff$$ff  @@  XXffffXX  @@  ff$$ffss  :,526",
"::2:5w5  $$$$$$  OO..  ffff  ..OO  $$$$$$  1:2:-52",
"=5:-:e:  $$$$$$  OO..  ffff  ..OO  $$$$$$  ::-:--5",
"--,:-1:  ss$$ff$$  @@ffffffff@@  $$ff$$ss  ,&&-51:",
"-:2::2=  ss$$ff$$  @@ffffffff@@  $$ff$$ss  55-::5-",
"w:-1,:=&-  ss$$  ..  ssffffss  ..  $$ss  &-1e::525",
":&:21-:2<  ss$$  ..  ssffffss  ..  $$ss  :::219wq1",
"&&:24:-2qw:      oo....oooo....oo      2q9-5:-:e::",
"=:-4:2::ep6      oo....oooo....oo      :ri2:::-,:%",
"5,526:255      ,5  ..  ....  ..  29      9::2::2=#",
"562wuq555      ,2  ..  ....  ..  q2      25:-1::=*",
"w2252:525::525-  ..  OO    OO  ..  2ww591-:&-21-:2",
":::-:--2*-52e%:  ..  OO    OO  ..  ,-522:-&&-14:=:",
"5>&&-41::::::=-  oo  ssOO@@ff  oo  :--2=-5-::3>2:-",
"194-::5:55-3:=:  oo  ssOO@@ff  oo  -5,:::132559-,9",
"=2r1-525252:-  oo  -:        =:  oo  2:59:255wpw52",
"::1,4q5:-:2-:  oo  2:        ::  oo  252524295w9:4",
"-5:-:e::=&%-:    =1  q5:-:2-:  :-    5:-:2-:<52*==",
"::::-,:=-=&=,    5:  q>;=&%-:  =7    >:&&%-:-195--",
"-:2::2=%&:=:52-::-:  ,:&=&%=1  :=::-1:==&%=19-1y2-",
"q:-:::-=-&:-::5--:2  2-%&>&:6  -:5::2=%&:=:41::1:2",
":%:32-:22,2-%=:9w:-    =-*-    w:-:1:=&-=:--:=5:-=",
"&=:,4:-2ww:=%-=2:&-    21>2    :%-5:-:2212-%&:-::=",
"-:-3:2::ep9:==:2=&:    2wq:    &&:25:-1qq:=&-=:2::",
"52555-255w49:--:-:;    2ei6    *:=5-2::ei9:=-5:-1,",
"2929uq945192&2125<522  55w2  :=q::3:-2294<922:%:51",
":<3,>9252:q12-ww1:5:-  22,q  =9-::=-=;2=-92e=&&:15",
":-=--:2=-54y&:e>::-:-:2--64u&:e9>%&=51::,,-:==:;5-",
":&&=51::,:::==:9:=*-2,::::::&&:299-::5:55:2:=2255w",
"q2=:-5-55-3:&::292--:2:55-4:*-:=2a1-425251:=:252ed"
};
