/* XPM */
static char *_4767116d75447ddd76d1d25e79dfc81BEJ3cRNUyVHlIjaj[] = {
/* columns rows colors chars-per-pixel */
"50 50 208 2 ",
"   c #000000",
".  c #0C0100",
"X  c #060803",
"o  c #0C0804",
"O  c #0B0B08",
"+  c #120100",
"@  c #1D0100",
"#  c #160D05",
"$  c #1C0B02",
"%  c #1B0B08",
"&  c #1F1207",
"*  c #17120B",
"=  c #171612",
"-  c #240200",
";  c #2C0200",
":  c #260C02",
">  c #2A0F05",
",  c #270C08",
"<  c #280C08",
"1  c #320200",
"2  c #3D0300",
"3  c #390B02",
"4  c #360E09",
"5  c #211407",
"6  c #241608",
"7  c #321303",
"8  c #3C1005",
"9  c #331E0C",
"0  c #3A250F",
"q  c #3C250E",
"w  c #420500",
"e  c #4C0200",
"r  c #460C06",
"t  c #540500",
"y  c #5D0500",
"u  c #530C02",
"i  c #5C0A01",
"p  c #4B1304",
"a  c #451905",
"s  c #4A1C04",
"d  c #581B05",
"f  c #640400",
"g  c #6D0300",
"h  c #640A01",
"j  c #740200",
"k  c #7B0400",
"l  c #740800",
"z  c #7D0900",
"x  c #7D0F09",
"c  c #641008",
"v  c #6D1908",
"b  c #7F1603",
"n  c #7D1A05",
"m  c #711108",
"M  c #40250E",
"N  c #42280F",
"B  c #56260A",
"V  c #4F2F11",
"C  c #563212",
"Z  c #5C3614",
"A  c #5D3A15",
"S  c #6A2907",
"D  c #672708",
"F  c #6A2D0A",
"G  c #7D2C06",
"H  c #7A2C0C",
"J  c #70330D",
"K  c #7F3008",
"L  c #693510",
"P  c #673814",
"I  c #763F17",
"U  c #7B461A",
"Y  c #7E4C1C",
"T  c #7F501D",
"R  c #810600",
"E  c #830900",
"W  c #8C0A00",
"Q  c #841103",
"!  c #8B1403",
"~  c #891A03",
"^  c #841208",
"/  c #891309",
"(  c #8D1C08",
")  c #901302",
"_  c #931A03",
"`  c #931D08",
"'  c #871F13",
"]  c #8B2A0E",
"[  c #972004",
"{  c #9C2405",
"}  c #95240C",
"|  c #9B2809",
" . c #9D2D0E",
".. c #813007",
"X. c #813108",
"o. c #883408",
"O. c #943507",
"+. c #943709",
"@. c #9D3A09",
"#. c #843810",
"$. c #A22304",
"%. c #A12906",
"&. c #A92D07",
"*. c #A32F0F",
"=. c #AA3309",
"-. c #A93708",
";. c #B23608",
":. c #B33A09",
">. c #BA3E09",
",. c #A73A14",
"<. c #AB3C14",
"1. c #B13F15",
"2. c #C23F0A",
"3. c #9D410E",
"4. c #854B1B",
"5. c #954613",
"6. c #85501E",
"7. c #8C511D",
"8. c #98551D",
"9. c #AE420A",
"0. c #BC430B",
"q. c #A64C16",
"w. c #B24215",
"e. c #B84917",
"r. c #BE4B15",
"t. c #BB5214",
"y. c #BE511D",
"u. c #835323",
"i. c #945720",
"p. c #9C6125",
"a. c #A26325",
"s. c #AC6524",
"d. c #A26826",
"f. c #AA6827",
"g. c #A3672B",
"h. c #BE6522",
"j. c #B66925",
"k. c #BE732A",
"l. c #BF7830",
"z. c #C14206",
"x. c #C44609",
"c. c #CA470B",
"v. c #C6490A",
"b. c #C94D0C",
"n. c #D34D0B",
"m. c #CC510D",
"M. c #D4520D",
"N. c #DA540D",
"B. c #C54E11",
"V. c #CC5412",
"C. c #C55817",
"Z. c #CF5812",
"A. c #D25714",
"S. c #D45D16",
"D. c #DA5C14",
"F. c #E3560E",
"G. c #D66017",
"H. c #D86117",
"J. c #D6631B",
"K. c #DA6519",
"L. c #DC691D",
"P. c #E26D1E",
"I. c #CD6424",
"U. c #C56D25",
"Y. c #D46A27",
"T. c #DB6D23",
"R. c #C0762C",
"E. c #C17A2C",
"W. c #C9782C",
"Q. c #D87629",
"!. c #DD752A",
"~. c #C07830",
"^. c #E06F20",
"/. c #E37323",
"(. c #E87724",
"). c #EA7A25",
"_. c #E17628",
"`. c #E47B2B",
"'. c #E97D28",
"]. c #D5812F",
"[. c #D8802F",
"{. c #D98531",
"}. c #DD8B33",
"|. c #EC822C",
" X c #F1862D",
".X c #F1892F",
"XX c #FB8C2F",
"oX c #E78430",
"OX c #EB8631",
"+X c #E48B33",
"@X c #ED8A33",
"#X c #F58D32",
"$X c #EF9035",
"%X c #EE943B",
"&X c #F59235",
"*X c #FA9436",
"=X c #F99638",
"-X c #F29938",
";X c #FE9B3A",
":X c #FFA03B",
">X c #FFA33C",
",X c #FFA53D",
"<X c #FFA93F",
"1X c #FFAA3F",
"2X c #FD9F40",
"3X c #FDA140",
"4X c #FDA341",
"5X c #FFAD40",
/* pixels */
"' ^ ^ % O O ~.3X;X;X;X3X_.B.B.T.3X3Xl.O O O O O * %X;X;X;X;X2XJ.B.A.B O O u.3X3X|.B.B.J.2X3X{.O O = ",
"Q z z +     k.:X;X;X;X;X/.x.x.L.;X:Xk.          o $X;X;X;X;X;XS.x.M.s     Y >X;X'.x.x.S.;X;X{.    O ",
"^ z R .     k.:X;X;X;X;X/.z.z.L.>X>XR.          X &X;X;X;X;X;XG.x.M.s     Y ,X;X'.x.x.S.;X;X{.    O ",
"% + + k.{.{.&X;X;X^.V.V./.&X&XI./ ` v     & {.{.[.A.V.V.V.V.S.{ E ) 1     F D.A.V.v.x.S.;X;XoXg g m ",
"O     }.>X;X;X;X;XK.z.z./.>X,XI.g k y     6 :X;X;Xb.x.x.x.v.b.! j R ;     D n.x.x.b.x.S.;X;XOXk R / ",
"O     {.;X;X;X;X>XL.b.b.'.,X<XY.k W f     # >X;X;Xm.x.b.x.x.b._ k W -     B M.b.x.x.z.S.,X,X#XR R / ",
"O     {.;X;XL.S.K.=.! ! }  .*.v @ - a E.R.U.S.S.S.b.b.x.'. X#XB @ - 4.E.R.C.b.x.J..X.XT.}  .] @ @ , ",
"O     {.;X;XS.z.b._ j k j j k e     q <X>X*Xx.x.x.b.b.x.&X;X,X0     f.<X,X(.z.x.L.>X,X!.g k f     O ",
"O     {.>X>XK.b.M.$.k E E E W t     N <X,X*Xz.x.x.m.m.m.*X,X<XN     f.5X<X(.z.x.L.<X<X`.k W l     O ",
"g.a.a.J.L.L.=._ { u ; ; ; ; 1 @     > w.<.w.'.'.(.{ _ [ ,.<.w.>     S w.<.0.b.b.0.<.<.] ; ; -     O ",
"3X>X>XV.z.b.! j R -                 @ k g ! >X;X=Xz j j j j k @     e k g { m.m.&.g k t           O ",
"2X;X;XS.b.M._ R W -                 + W R ` ,X,X;X! R E E E W -     t W k &.M.M.;.k W f           O ",
"_././.=.%.&.u 2 w L T Y Y Y Y Y Y T P w 2 u y.y.e.r 2 2 2 2 w .     ; w 2 v &.&.n 2 w p T Y Y Y Y u.",
"B.x.x.E j k +     f.5X>X>X>X>X>X>X<XW.    . j j g                         1 R k e     q <X>X>X>X>X3X",
"Z.m.m.! R W +     p.<X;X;X;X;X;X;X:Xk.      E E z                         w W W e     9 ,X;X;X;X;X2X",
"<.=.=.i e t C A A j.|.'.'.'.'. X;X;X].Z A C t t u Z A Z Z Z Z Z Z A 5     - t t d A A Y |.'.'.'.'.|.",
"x j k .     W.<X<XL.z.x.x.x.z.K.;X=X;X>X<X+X    X ;X,X>X>X>X>X>X>X5XP           A 5X,XXXz.x.x.x.x.B.",
"/ R E       k.,X>XL.x.b.x.x.z.K.>X;X;X:X,X}.    o $X;X;X;X;X;X;X;X<XC           A ,X>X Xz.x.x.b.b.V.",
"c y y M q q U..X.XJ.x.x.V.J.S.L..X X|.!._.h.    o $X;X;X;X;X;X.X|..XY q q &     C #X X'.S.S.S.b.b.V.",
"O     +X,X,XS.z.x.x.b.x./.>X>X'.z.b.;.j k f     o $X;X;X;X;X;XA.z.z. X,X<X6.    s n.z.S.>X;X&Xx.b.V.",
"O     {.>X>XS.z.x.v.b.x./.>X>X|.x.m.>.k E g     X &X;X;X;X;X;XG.x.x.'.;X>XY     s N.b.K.>X;X&Xx.b.V.",
"O     W.@XOXJ.V.A.m.b.x.L.OX@XT.>.z.=.f g h 6 6 9 OX&X#X#X#X&XS.x.x.'.;X>X4.+ + s 0.-.t.OXOX`.x.b.V.",
"O     g k j !.>X;XL.x.m.%.j k k k R y     6 ;X;X;Xm.x.x.x.x.x.b.b.x.'.;X>Xy.j E e     @ R k Q b.b.V.",
"O     g R j !.>X;XL.x.m.%.k z z z E y     5 ;X;X=Xm.x.x.x.x.x.b.b.x.'.;X,Xy.j E e     @ E k ! b.b.V.",
"* o o h z g Y.=X=XJ.z.b.| j l l l z i o o 9 *X=X&XV.b.m.m.m.m.b.b.x.(.=X=Xe.j R t o o : z j Q x.x.B.",
"%X$X&X6     h ! Q E R W w           M -X&XOXb.b.V.&X=X=X=X=X;XS.x.m.{ z Q z z j ,.-X-Xj.    + E z / ",
";X;X;X6     y R k k k E 2           q ,X;X&Xx.x.b.=X;X;X;X;X;XS.x.m.[ j k k z j <.,X>XR.    . k k x ",
";X;X;X6     f E z z z E 2           0 ,X;X#Xx.x.b.=X;X;X;X;X;XH.b.M.{ k z k k j <.,X>Xk.    + R z ^ ",
"} ( ` +     . + + + + + .     V }.{.Q.V.V.S.#X#X|.} ( ( ( ( ` 3 $ $ + + + U @XOX/.V.D.3.      + + % ",
"x k k +                       A <X>X.Xz.x.V.;X;X&Xz j k k k k @           Y <X>X'.z.n.+.          O ",
"/ R E                         A <X,X#Xb.b.S.>X>X;X! R R R R W +           U <X>X|.b.N.@.          O ",
"< @ @ s.R.k.k.k.k.k.k.E.A     8 *. .| ) _ ~ q q q - @ @ @ @ - i.E.k.k.k.R.U.S.K.3.7 7 B E.k.k.k.k.l.",
"O     +X,X:X:X:X:X:X:X<X6.    ; k j j k k f                   W.<X:X:X:X,X/.z.n.G     0 <X:X:X:X:X3X",
"O     ].;X;X;X;X;X;X;X5XU     - W E E E W l                   R.,X;X>X>X,X).n.F...    9 ,X;X;X;X;X;X",
"g.a.a.$X;X;X/.K.L.L.L.L.h.d.d.I 1 ; ; ; ; 8 a.a.a.a.a.a.#     q.P.L.r.,.1.H a s L d.a.s.L.K.T.;X;X;X",
"3X>X>X;X;X;XA.z.x.x.x.z.(.,X5Xf.          & ,X>X>X>X>X,X6     O.b.b._ g k 1     Z 5X,XXXz.z.V.;X;X;X",
";X;X=X=X=X;XA.z.x.x.x.z./.>X<Xd.          # >X;X;X;X;X;X#     @.F.N.$.k W w     A <X>X.Xx.x.Z.;X;X3X",
";X;X=X;X=X;X'./././././././.'.5.    & T Y 7./././.=X;X;Xi.Y T F S D p 2 w @     B './.L.x.x.m././._.",
";X;X;X;X;X;X;X;X;X;X;X>X/.z.n.G     N <X,X*Xz.z.b.=X;X;X:X>X<X0                 s n.x.x.b.b.b.x.x.B.",
"2X;X;X;X;X;X;X;X;X:X>X,X).n.F.X.    0 <X>X&Xx.x.m.;X;X;X;X;X:Xq                 a F.M.M.b.b.b.x.x.B.",
"|.'.'.=X;X;X|.'.'.T.I.Y.q.G o.S s s J |.'.(.x.x.b.(.'.'.=X;X:Xq     0 A Z Z Z A L o.K +.b.v.m.L.L.T.",
"B.x.z.#X;X;XA.z.b._ g k 1     a F.M.n.x.x.x.b.b.b.x.x.z.#X;X:Xq     f.5X>X>X>X5Xf.    : M.x.Z.;X;X2X",
"Z.b.b.&X;X>XK.b.M.{ k W w     s N.m.b.b.b.b.x.x.x.x.x.x.&X>X<XN     d.,X;X;X:X<Xf.    > M.x.Z.;X;X;X",
"w.:.:.'. X#XB.;.>.n y h ;     a 2.:.>.b.b.b.S.S.S.S.S.S.!.!._.9     8.#X XQ.k.E.4.- @ p M.x.V. X|.@X",
"x k j >.x.b.! j R -           ; R j ! m.x.Z.;X;X;X;X;X>X/ j k @     G n.n.d     - W R _ m.b.b.x.x.B.",
"/ R k z.m.m._ k W ;           ; W k _ m.b.S.;X;X;X;X;X:X` k E @     K N.N.D     ; E k _ M.b.b.b.b.V.",
"m g g ;.z.z.b h l 3 $ $ $ $ $ 3 l h b z.0.B.#X#X#XOXOXOXn f l - + + G c.c.B     ; E k ! 9.9.9.0.0.r.",
"O     g k R @     X.N.b.b.b.N.X.    @ R k Q b.b.z.z k k .     y E z k k E 2     ; E R y     . k k ^ ",
"O     g R R @     K M.b.b.b.M.K     @ R k Q b.b.x.E k z +     y R z z z E 2     ; E R y     + z z Q ",
"= O O m / / < O O #.A.V.V.V.A.#.O O < / x ( V.V.B./ ^ ^ % O O c / ^ ^ ^ / r O O 4 / / c O O % ^ ^ ' "
};
